<?xml version="1.0" encoding="UTF-8" standalone="no"?>
<!-- Generator: Adobe Illustrator 15.0.0, SVG Export Plug-In . SVG Version: 6.00 Build 0)  -->

<svg
   xmlns:dc="http://purl.org/dc/elements/1.1/"
   xmlns:cc="http://creativecommons.org/ns#"
   xmlns:rdf="http://www.w3.org/1999/02/22-rdf-syntax-ns#"
   xmlns:svg="http://www.w3.org/2000/svg"
   xmlns="http://www.w3.org/2000/svg"
   xmlns:xlink="http://www.w3.org/1999/xlink"
   xmlns:sodipodi="http://sodipodi.sourceforge.net/DTD/sodipodi-0.dtd"
   xmlns:inkscape="http://www.inkscape.org/namespaces/inkscape"
   version="1.1"
   id="Layer_1"
   x="0px"
   y="0px"
   width="1488"
   height="800"
   viewBox="0 0 1488 799.99996"
   enable-background="new 0 0 955.82 294.424"
   xml:space="preserve"
   sodipodi:docname="logo_linkedin.svg"
   inkscape:version="0.92.2 (5c3e80d, 2017-08-06)"><metadata
     id="metadata40"><rdf:RDF><cc:Work
         rdf:about=""><dc:format>image/svg+xml</dc:format><dc:type
           rdf:resource="http://purl.org/dc/dcmitype/StillImage" /><dc:title></dc:title></cc:Work></rdf:RDF></metadata><defs
     id="defs38" /><sodipodi:namedview
     pagecolor="#ffffff"
     bordercolor="#666666"
     borderopacity="1"
     objecttolerance="10"
     gridtolerance="10"
     guidetolerance="10"
     inkscape:pageopacity="0"
     inkscape:pageshadow="2"
     inkscape:window-width="1307"
     inkscape:window-height="1057"
     id="namedview36"
     showgrid="false"
     inkscape:snap-others="false"
     inkscape:zoom="0.31177418"
     inkscape:cx="868.70555"
     inkscape:cy="147.21201"
     inkscape:window-x="1473"
     inkscape:window-y="721"
     inkscape:window-maximized="0"
     inkscape:current-layer="Layer_1" /><polygon
     points="600.078,99.122 600.078,225.213 576.525,225.213 576.525,140.916 543.587,185.898 510.823,140.916 510.823,225.213 487.27,225.213 487.27,99.122 509.406,99.122 543.587,146.051 577.765,99.122 "
     id="polygon2"
     style="fill:#212c43"
     transform="translate(275.84068,245.77257)" /><g
     id="g18"
     transform="translate(275.84068,245.77257)"><defs
       id="defs5"><rect
         id="SVGID_1_"
         width="955.82001"
         height="294.42401"
         x="0"
         y="0" /></defs><clipPath
       id="SVGID_2_"><use
         xlink:href="#SVGID_1_"
         overflow="visible"
         id="use7"
         style="overflow:visible"
         x="0"
         y="0"
         width="100%"
         height="100%" /></clipPath><path
       clip-path="url(#SVGID_2_)"
       d="m 634.251,214.764 c -7.969,-8.323 -12.396,-19.126 -12.396,-30.105 0,-11.156 4.427,-21.959 12.396,-30.105 8.147,-7.792 18.772,-12.22 30.106,-12.22 11.688,0 22.313,4.428 29.929,12.22 8.146,8.146 12.573,18.771 12.573,30.105 0,11.334 -4.427,21.96 -12.573,30.105 -7.97,7.969 -18.595,12.397 -29.929,12.397 -10.979,0 -21.782,-4.429 -30.106,-12.397 m 8.501,-30.106 c 0,12.22 9.74,22.137 21.605,22.137 12.042,0 21.782,-9.917 21.782,-22.137 0,-12.22 -9.74,-22.138 -21.782,-22.138 -11.865,10e-4 -21.605,9.918 -21.605,22.138"
       id="path10"
       inkscape:connector-curvature="0"
       style="fill:#212c43" /><path
       clip-path="url(#SVGID_2_)"
       d="m 841.421,216.535 c -7.261,-6.906 -11.156,-16.292 -11.156,-26.388 v -46.044 h 22.313 v 46.044 c 0,8.324 6.905,15.054 15.584,15.054 8.678,0 15.762,-6.729 15.762,-15.054 v -46.044 h 22.312 v 46.044 c 0,9.917 -4.072,19.304 -11.334,26.388 -7.084,6.906 -16.469,10.626 -26.74,10.626 -10.271,0 -19.834,-3.72 -26.741,-10.626"
       id="path12"
       inkscape:connector-curvature="0"
       style="fill:#212c43" /><path
       clip-path="url(#SVGID_2_)"
       d="m 928.37,120.727 c 0,-3.718 1.417,-7.084 4.073,-9.562 2.655,-2.657 6.021,-4.073 9.739,-4.073 7.439,0 13.638,6.198 13.638,13.635 0,7.439 -6.198,13.637 -13.638,13.637 -7.614,0 -13.812,-6.198 -13.812,-13.637 m 2.303,23.377 h 23.021 v 81.108 h -23.021 z"
       id="path14"
       inkscape:connector-curvature="0"
       style="fill:#212c43" /><path
       clip-path="url(#SVGID_2_)"
       d="m 785.039,218.838 0.69,-0.709 v 42.911 h 22 v -117 h -22 v 6.439 l -0.69,-0.885 c -6.375,-6.199 -13.538,-7.084 -19.913,-7.084 -11.157,0 -21.735,4.251 -29.882,12.219 -7.969,8.147 -12.371,18.773 -12.371,29.93 0,11.157 4.439,21.782 12.408,29.929 7.97,7.969 18.504,12.219 29.838,12.219 7.438,-10e-4 14.075,-2.658 19.92,-7.969 m -40.713,-34.18 c 0,-11.688 9.562,-21.429 20.896,-21.429 11.334,0 20.896,9.74 20.896,21.429 0,11.512 -9.562,21.429 -20.896,21.429 -11.334,0 -20.896,-9.917 -20.896,-21.429"
       id="path16"
       inkscape:connector-curvature="0"
       style="fill:#212c43" /></g><g
     id="g33"
     transform="translate(275.84068,245.77257)"><defs
       id="defs21"><path
         id="SVGID_3_"
         d="m 24.62,131.887 c 5.69,-2.783 9.62,-8.611 9.62,-15.371 0,-2.668 -0.628,-5.183 -1.716,-7.433 L 93.67,35.974 v 127.625 c -5.69,2.783 -9.619,8.611 -9.619,15.372 0,2.45 0.524,4.775 1.451,6.881 L 24.62,258.646 Z m 92.22,53.966 c 0.927,-2.106 1.451,-4.432 1.451,-6.882 0,-6.762 -3.93,-12.589 -9.62,-15.372 V 35.972 l 61.146,73.111 c -1.087,2.25 -1.715,4.765 -1.715,7.433 0,6.76 3.929,12.588 9.62,15.371 v 126.76 z m 75.881,-53.966 c 5.691,-2.782 9.621,-8.611 9.621,-15.371 0,-2.668 -0.628,-5.183 -1.716,-7.433 l 61.147,-73.111 v 127.627 c -5.691,2.783 -9.619,8.611 -9.619,15.372 0,2.45 0.523,4.775 1.45,6.882 l -60.883,72.794 z m 92.221,53.966 c 0.928,-2.106 1.451,-4.432 1.451,-6.882 0,-6.761 -3.93,-12.589 -9.62,-15.372 V 35.972 l 61.147,73.111 c -1.088,2.25 -1.715,4.765 -1.715,7.433 0,6.76 3.928,12.589 9.619,15.371 v 126.76 z M 269.273,0 c -9.455,0 -17.119,7.665 -17.119,17.12 0,2.025 0.369,3.959 1.014,5.761 l -64.323,76.907 c -1.169,-0.252 -2.379,-0.392 -3.623,-0.392 -1.244,0 -2.454,0.14 -3.624,0.392 L 117.275,22.881 c 0.646,-1.802 1.016,-3.736 1.016,-5.761 0,-9.455 -7.665,-17.12 -17.12,-17.12 -9.455,0 -17.12,7.665 -17.12,17.12 0,2.025 0.37,3.958 1.015,5.761 L 20.743,99.788 C 19.574,99.536 18.364,99.396 17.12,99.396 7.664,99.396 0,107.06 0,116.516 c 0,6.76 3.929,12.589 9.62,15.371 V 261.933 C 3.929,264.715 0,270.543 0,277.304 c 0,9.456 7.664,17.12 17.12,17.12 9.454,0 17.12,-7.664 17.12,-17.12 0,-1.974 -0.351,-3.861 -0.966,-5.625 l 63.677,-76.134 c 1.352,0.343 2.761,0.546 4.22,0.546 1.459,0 2.867,-0.203 4.219,-0.546 l 63.678,76.134 c -0.615,1.764 -0.966,3.651 -0.966,5.625 0,9.456 7.665,17.12 17.12,17.12 9.455,0 17.12,-7.664 17.12,-17.12 0,-1.974 -0.351,-3.861 -0.965,-5.625 l 63.677,-76.134 c 1.351,0.343 2.76,0.546 4.219,0.546 1.46,0 2.868,-0.203 4.22,-0.546 l 63.677,76.134 c -0.615,1.764 -0.965,3.651 -0.965,5.625 0,9.456 7.664,17.12 17.12,17.12 9.454,0 17.119,-7.664 17.119,-17.12 0,-6.761 -3.929,-12.589 -9.62,-15.371 V 131.887 c 5.691,-2.782 9.62,-8.611 9.62,-15.371 0,-9.456 -7.665,-17.12 -17.119,-17.12 -1.245,0 -2.455,0.14 -3.624,0.392 L 285.377,22.881 c 0.646,-1.802 1.016,-3.736 1.016,-5.761 C 286.393,7.665 278.728,0 269.273,0 Z"
         inkscape:connector-curvature="0" /></defs><clipPath
       id="SVGID_4_"><use
         xlink:href="#SVGID_3_"
         overflow="visible"
         id="use23"
         style="overflow:visible"
         x="0"
         y="0"
         width="100%"
         height="100%" /></clipPath><linearGradient
       id="SVGID_5_"
       gradientUnits="userSpaceOnUse"
       x1="0"
       y1="294.46191"
       x2="1"
       y2="294.46191"
       gradientTransform="matrix(551.9724,-520.474,-520.474,-551.9724,153199.53,162913.25)"><stop
         offset="0"
         style="stop-color:#00FFC3"
         id="stop26" /><stop
         offset="1"
         style="stop-color:#0072EB"
         id="stop28" /></linearGradient><polygon
       clip-path="url(#SVGID_4_)"
       points="517.402,155.852 174.351,479.326 -146.958,138.572 196.093,-184.903 "
       id="polygon31"
       style="fill:url(#SVGID_5_)" /></g></svg>