<?xml version="1.0" encoding="utf-8"?>
<!-- Generator: Adobe Illustrator 15.0.0, SVG Export Plug-In . SVG Version: 6.00 Build 0)  -->
<!DOCTYPE svg PUBLIC "-//W3C//DTD SVG 1.1//EN" "http://www.w3.org/Graphics/SVG/1.1/DTD/svg11.dtd">
<svg version="1.1" id="Layer_1" xmlns="http://www.w3.org/2000/svg" xmlns:xlink="http://www.w3.org/1999/xlink" x="0px" y="0px"
	 width="955.82px" height="294.424px" viewBox="0 0 955.82 294.424" enable-background="new 0 0 955.82 294.424"
	 xml:space="preserve">
<polygon fill="#212C43" points="576.525,225.213 576.525,140.916 543.587,185.898 510.823,140.916 510.823,225.213 487.27,225.213 
	487.27,99.122 509.406,99.122 543.587,146.051 577.765,99.122 600.078,99.122 600.078,225.213 "/>
<g>
	<defs>
		<rect id="SVGID_1_" width="955.82" height="294.424"/>
	</defs>
	<clipPath id="SVGID_2_">
		<use xlink:href="#SVGID_1_"  overflow="visible"/>
	</clipPath>
	<path clip-path="url(#SVGID_2_)" fill="#212C43" d="M634.251,214.764c-7.969-8.323-12.396-19.126-12.396-30.105
		c0-11.156,4.427-21.959,12.396-30.105c8.147-7.792,18.772-12.22,30.106-12.22c11.688,0,22.313,4.428,29.929,12.22
		c8.146,8.146,12.573,18.771,12.573,30.105s-4.427,21.96-12.573,30.105c-7.97,7.969-18.595,12.397-29.929,12.397
		C653.378,227.161,642.575,222.732,634.251,214.764 M642.752,184.658c0,12.22,9.74,22.137,21.605,22.137
		c12.042,0,21.782-9.917,21.782-22.137s-9.74-22.138-21.782-22.138C652.492,162.521,642.752,172.438,642.752,184.658"/>
	<path clip-path="url(#SVGID_2_)" fill="#212C43" d="M841.421,216.535c-7.261-6.906-11.156-16.292-11.156-26.388v-46.044h22.313
		v46.044c0,8.324,6.905,15.054,15.584,15.054c8.678,0,15.762-6.729,15.762-15.054v-46.044h22.312v46.044
		c0,9.917-4.072,19.304-11.334,26.388c-7.084,6.906-16.469,10.626-26.74,10.626S848.328,223.441,841.421,216.535"/>
	<path clip-path="url(#SVGID_2_)" fill="#212C43" d="M928.37,120.727c0-3.718,1.417-7.084,4.073-9.562
		c2.655-2.657,6.021-4.073,9.739-4.073c7.439,0,13.638,6.198,13.638,13.635c0,7.439-6.198,13.637-13.638,13.637
		C934.568,134.364,928.37,128.166,928.37,120.727 M930.673,144.104h23.021v81.108h-23.021V144.104z"/>
	<path clip-path="url(#SVGID_2_)" fill="#212C43" d="M785.039,218.838l0.69-0.709v42.911h22v-117h-22v6.439l-0.69-0.885
		c-6.375-6.199-13.538-7.084-19.913-7.084c-11.157,0-21.735,4.251-29.882,12.219c-7.969,8.147-12.371,18.773-12.371,29.93
		s4.439,21.782,12.408,29.929c7.97,7.969,18.504,12.219,29.838,12.219C772.557,226.806,779.194,224.149,785.039,218.838
		 M744.326,184.658c0-11.688,9.562-21.429,20.896-21.429s20.896,9.74,20.896,21.429c0,11.512-9.562,21.429-20.896,21.429
		S744.326,196.17,744.326,184.658"/>
</g>
<g>
	<defs>
		<path id="SVGID_3_" d="M24.62,131.887c5.69-2.783,9.62-8.611,9.62-15.371c0-2.668-0.628-5.183-1.716-7.433L93.67,35.974v127.625
			c-5.69,2.783-9.619,8.611-9.619,15.372c0,2.45,0.524,4.775,1.451,6.881L24.62,258.646V131.887z M116.84,185.853
			c0.927-2.106,1.451-4.432,1.451-6.882c0-6.762-3.93-12.589-9.62-15.372V35.972l61.146,73.111c-1.087,2.25-1.715,4.765-1.715,7.433
			c0,6.76,3.929,12.588,9.62,15.371v126.76L116.84,185.853z M192.721,131.887c5.691-2.782,9.621-8.611,9.621-15.371
			c0-2.668-0.628-5.183-1.716-7.433l61.147-73.111v127.627c-5.691,2.783-9.619,8.611-9.619,15.372c0,2.45,0.523,4.775,1.45,6.882
			l-60.883,72.794V131.887z M284.942,185.853c0.928-2.106,1.451-4.432,1.451-6.882c0-6.761-3.93-12.589-9.62-15.372V35.972
			l61.147,73.111c-1.088,2.25-1.715,4.765-1.715,7.433c0,6.76,3.928,12.589,9.619,15.371v126.76L284.942,185.853z M269.273,0
			c-9.455,0-17.119,7.665-17.119,17.12c0,2.025,0.369,3.959,1.014,5.761l-64.323,76.907c-1.169-0.252-2.379-0.392-3.623-0.392
			c-1.244,0-2.454,0.14-3.624,0.392l-64.323-76.907c0.646-1.802,1.016-3.736,1.016-5.761c0-9.455-7.665-17.12-17.12-17.12
			s-17.12,7.665-17.12,17.12c0,2.025,0.37,3.958,1.015,5.761L20.743,99.788c-1.169-0.252-2.379-0.392-3.623-0.392
			C7.664,99.396,0,107.06,0,116.516c0,6.76,3.929,12.589,9.62,15.371v130.046C3.929,264.715,0,270.543,0,277.304
			c0,9.456,7.664,17.12,17.12,17.12c9.454,0,17.12-7.664,17.12-17.12c0-1.974-0.351-3.861-0.966-5.625l63.677-76.134
			c1.352,0.343,2.761,0.546,4.22,0.546s2.867-0.203,4.219-0.546l63.678,76.134c-0.615,1.764-0.966,3.651-0.966,5.625
			c0,9.456,7.665,17.12,17.12,17.12c9.455,0,17.12-7.664,17.12-17.12c0-1.974-0.351-3.861-0.965-5.625l63.677-76.134
			c1.351,0.343,2.76,0.546,4.219,0.546c1.46,0,2.868-0.203,4.22-0.546l63.677,76.134c-0.615,1.764-0.965,3.651-0.965,5.625
			c0,9.456,7.664,17.12,17.12,17.12c9.454,0,17.119-7.664,17.119-17.12c0-6.761-3.929-12.589-9.62-15.371V131.887
			c5.691-2.782,9.62-8.611,9.62-15.371c0-9.456-7.665-17.12-17.119-17.12c-1.245,0-2.455,0.14-3.624,0.392l-64.324-76.907
			c0.646-1.802,1.016-3.736,1.016-5.761C286.393,7.665,278.728,0,269.273,0z"/>
	</defs>
	<clipPath id="SVGID_4_">
		<use xlink:href="#SVGID_3_"  overflow="visible"/>
	</clipPath>
	
		<linearGradient id="SVGID_5_" gradientUnits="userSpaceOnUse" x1="0" y1="294.4619" x2="1" y2="294.4619" gradientTransform="matrix(551.9724 -520.474 -520.474 -551.9724 153199.5312 162913.25)">
		<stop  offset="0" style="stop-color:#00FFC3"/>
		<stop  offset="1" style="stop-color:#0072EB"/>
	</linearGradient>
	<polygon clip-path="url(#SVGID_4_)" fill="url(#SVGID_5_)" points="-146.958,138.572 196.093,-184.903 517.402,155.852 
		174.351,479.326 	"/>
</g>
</svg>
